# xmcd
# 
# Track frame offsets:
#     150
#     15495
#     31825
#     46038
#     61055
#     73311
#     84202
#     98186
#     110961
#     124285
# 
# Disc length: 1851
# 
# Revision: 0
# Processed by: cddbd v1.5.2PL0 Copyright (c) Steve Scherf et al.
# Submitted via: fre:ac v1.0.17
# 
DISCID=7d07390a
DTITLE=Various Artist - Women In Music Feminine Charms
DYEAR=0
DGENRE=Blues
TTITLE0=Dinah Washington - Trouble Trouble
TTITLE1=Sarah Vaughn - The Nearness of You
TTITLE2=Billy Holliday - God Bless the Child
TTITLE3=Ella Fitzgerald  - Love and Kisses
TTITLE4=Gladys Knight - I Cant Stand By
TTITLE5=Barbara George - I Know you don't love me no more
TTITLE6=Barbara Faichild - Teddy Bear Song
TTITLE7=Etta James - Something's Got aHold on Me
TTITLE8=Billy Holliday - He's Funny That Way
TTITLE9=Ella Fitzgerald - Rock It For Me
EXTD=
EXTT0=
EXTT1=
EXTT2=
EXTT3=
EXTT4=
EXTT5=
EXTT6=
EXTT7=
EXTT8=
EXTT9=
PLAYORDER=
